<?xml version="1.0" standalone="no"?>
<!DOCTYPE svg PUBLIC "-//W3C//DTD SVG 20010904//EN"
 "http://www.w3.org/TR/2001/REC-SVG-20010904/DTD/svg10.dtd">
<svg version="1.0" xmlns="http://www.w3.org/2000/svg"
 width="92.000000pt" height="92.000000pt" viewBox="0 0 92.000000 92.000000"
 preserveAspectRatio="xMidYMid meet">

<g transform="translate(0.000000,92.000000) scale(0.100000,-0.100000)"
fill="#000000" stroke="none">
<path d="M0 460 l0 -460 460 0 460 0 0 460 0 460 -460 0 -460 0 0 -460z m486
219 c8 -14 -11 -33 -25 -25 -11 7 -4 36 9 36 5 0 12 -5 16 -11z m-118 -26 c-2
-10 -10 -18 -18 -18 -8 0 -16 8 -18 18 -2 12 3 17 18 17 15 0 20 -5 18 -17z
m222 -8 c0 -8 -7 -15 -15 -15 -8 0 -15 7 -15 15 0 8 7 15 15 15 8 0 15 -7 15
-15z m175 -72 c-84 -79 -165 -137 -282 -204 -48 -28 -94 -58 -100 -67 -19 -24
-16 -59 7 -82 11 -11 20 -22 20 -25 0 -3 -33 -5 -74 -5 -82 0 -94 7 -102 62
-9 56 27 88 153 138 150 59 286 131 368 195 39 30 72 54 75 54 3 0 -26 -29
-65 -66z m-115 27 c0 -5 -4 -10 -10 -10 -5 0 -10 5 -10 10 0 6 5 10 10 10 6 0
10 -4 10 -10z m-392 -43 c4 -20 -25 -34 -40 -19 -15 15 -1 44 19 40 10 -2 19
-11 21 -21z m-68 -146 c0 -27 -19 -36 -37 -18 -18 18 -9 37 18 37 12 0 19 -7
19 -19z m18 -169 c4 -28 -24 -41 -44 -20 -20 20 -7 50 20 46 13 -2 22 -12 24
-26z"/>
</g>
</svg>
