<svg width="466" height="319" viewBox="0 0 466 319" fill="none" xmlns="http://www.w3.org/2000/svg">
<path fill-rule="evenodd" clip-rule="evenodd" d="M166.554 2.06134C165.773 3.17773 165.134 5.24972 165.134 6.66576C165.134 8.47373 164.072 10.2479 161.56 12.6287C159.595 14.4933 157.08 18.1814 155.971 20.8262C153.732 26.1697 153.783 26.145 143.221 26.8942C121.328 28.4454 93.1307 43.1357 72.6954 63.6363C57.1225 79.2585 47.7106 96.526 40.3432 122.99L39.3027 126.727L20.4104 127.337C3.29269 127.891 -1.3955 128.588 0.337149 130.324C0.664529 130.652 8.91104 130.845 18.6631 130.754C29.6636 130.651 36.6079 130.934 36.9563 131.5C37.2663 132.002 36.1118 134.259 34.392 136.516C26.5494 146.809 23.334 157.764 24.0389 171.783C24.7602 186.119 27.1276 192.294 35.1379 200.735C38.6233 204.407 42.0092 207.412 42.6613 207.412C43.3142 207.412 43.8486 207.74 43.8486 208.141C43.8486 208.542 49.6785 211.706 56.8034 215.172C67.5312 220.389 70.7156 222.424 75.3272 227.005C83.7917 235.411 86.5767 242.595 83.6057 248.352C81.9815 251.498 73.694 259.332 68.9264 262.227C66.9202 263.445 64.7717 264.936 64.1516 265.54C63.5324 266.143 59.1114 268.571 54.3275 270.933C39.8863 278.065 32.7733 276.668 29.4949 266.054C27.6994 260.238 27.3319 242.281 28.8931 236.647C29.381 234.888 29.6372 232.549 29.463 231.449C28.77 227.081 21.7427 228.804 15.5279 234.869C10.4823 239.793 7.59787 245.125 4.28668 255.651C1.19709 265.469 0.86424 282.235 3.63648 288.35C5.54058 292.552 9.68982 295.544 14.9717 296.525C18.5628 297.192 31.9936 295.371 31.9936 294.217C31.9936 293.866 33.7354 293.054 35.8638 292.416C42.2135 290.51 56.5526 282.907 66.2372 276.312C78.6731 267.844 82.2414 264.938 91.6597 255.606C96.1373 251.17 100.301 247.731 100.912 247.966C101.522 248.201 103.706 248.899 105.764 249.516C107.823 250.134 109.502 251.088 109.497 251.636C109.491 252.186 107.427 254.073 104.908 255.832C102.389 257.59 98.232 260.674 95.6695 262.683C93.107 264.693 88.2437 268.393 84.8632 270.906C73.5699 279.296 57.1544 293.035 49.2171 300.739C40.7982 308.91 39.3209 311.794 41.2113 316.367C42.2919 318.979 42.4926 319.054 47.4197 318.676C51.2798 318.38 53.5049 317.58 56.6155 315.373C58.8725 313.772 63.5917 310.524 67.1026 308.154C73.0155 304.164 75.4522 302.415 85.341 295.061C100.638 283.685 129.994 263.14 130.954 263.14C131.253 263.14 131.419 267.355 131.322 272.504C131.172 280.53 131.36 281.911 132.638 282.164C133.668 282.368 134.139 281.804 134.162 280.336C134.179 279.169 134.559 274.11 135.006 269.095C135.894 259.13 137.275 256.745 142.155 256.745C144.533 256.745 149.946 255.843 162.398 253.37C169.454 251.969 188.844 244.3 188.844 242.911C188.844 242.481 189.389 242.128 190.054 242.128C191.113 242.128 205.869 232.71 207.086 231.257C207.34 230.955 210.404 228.036 213.896 224.77C217.388 221.504 222.696 215.749 225.691 211.98C232.215 203.772 232.397 203.624 239.912 200.448C243.172 199.07 249.279 196.336 253.484 194.372C261.345 190.7 267.718 188.227 269.321 188.227C270.883 188.227 269.341 198.566 263.528 227.054C263.015 229.566 262.375 234.296 262.106 237.565C261.678 242.767 261.852 243.72 263.495 245.21C268.024 249.316 272.675 244.406 275.062 233.001C275.851 229.227 277.461 222.029 278.64 217.005C281.391 205.277 283.44 195.252 284.147 190.054C284.942 184.223 286.237 181.31 288.532 180.194C290.495 179.238 308.683 173.304 323.809 168.682C341.041 163.418 353.286 160.907 354.234 162.446C354.732 163.253 353.876 171.869 351.113 193.893C350.197 201.198 350.846 211.414 352.62 217.591C353.1 219.263 355.906 220.306 357.414 219.373C358.78 218.527 361.105 212.688 362.105 207.59C362.568 205.231 364.028 198.573 365.349 192.795C366.671 187.017 368.351 177.972 369.081 172.696C370.881 159.701 371.198 158.818 374.42 157.813C375.925 157.345 386.389 156.909 397.674 156.845C414.255 156.751 419.438 157.03 424.682 158.301C432.636 160.227 444.445 164.692 448.742 167.397C453.182 170.191 460.519 173.61 462.078 173.61C463.671 173.61 465.159 169.928 465.148 166.013C465.143 164.413 463.926 160.984 462.443 158.394C458.119 150.841 449.841 144.876 436.887 139.977C424.705 135.372 415.393 134.07 393.571 133.925L374.42 133.797L374.643 131.093C374.766 129.605 376.105 119.138 377.618 107.832C384.371 57.4067 386.019 44.2274 388.085 24.105C389.295 12.3181 390.057 2.07961 389.778 1.3524C388.959 -0.787192 384.235 -0.271021 382.665 2.12894C379.011 7.71637 372.139 39.1964 367.168 73.1165C365.364 85.4269 363.522 97.1436 363.075 99.1534C362.628 101.163 361.354 110.002 360.245 118.795C359.136 127.588 357.864 135.243 357.42 135.805C356.976 136.367 352.617 137.76 347.734 138.899C328.213 143.455 310.127 148.304 301.535 151.285C296.557 153.011 292.093 154.425 291.614 154.425C290.613 154.425 291.434 146.874 292.893 142.684L293.851 139.931L298.114 142.227C301.811 144.216 303.09 144.444 307.726 143.935C310.667 143.612 313.745 143.016 314.565 142.61C315.386 142.204 318.073 140.97 320.535 139.867C326.669 137.12 334.645 130.804 339.922 124.514C342.345 121.626 344.853 118.705 345.497 118.021C347.574 115.812 354.61 100.243 356.293 94.1288C357.412 90.0633 357.938 84.8779 357.96 77.6844C357.988 68.6482 357.703 66.5461 355.92 62.6606C352.727 55.7019 349.813 52.4688 344.293 49.7637C339.718 47.5209 338.611 47.3391 332.825 47.8781C326.024 48.5112 315.003 52.8452 307.686 57.7639C303.305 60.7083 302.606 60.817 299.818 58.9872C295.653 56.2537 291.891 59.465 291.891 65.754C291.891 67.8744 290.229 69.7737 282.363 76.6447C277.074 81.2647 272.577 84.5527 272.258 84.0356C271.941 83.5221 270.903 80.373 269.951 77.0376C267.595 68.7834 264.683 65.8079 258.962 65.8079C253.824 65.8079 250.632 68.1019 246.169 75.0012C244.565 77.4816 242.92 79.5115 242.515 79.5115C242.11 79.5115 241.094 78.3805 240.257 76.9992C229.386 59.0401 212.569 43.0909 197.051 36.0253C188.458 32.1125 183.982 30.469 176.305 28.4061L172.43 27.3646V22.0431C172.43 18.0754 171.958 16.1204 170.576 14.3599C168.966 12.3098 168.802 11.2117 169.334 6.01438C169.99 -0.402576 169.13 -1.62494 166.554 2.06134ZM425.944 37.4861C425.192 37.9283 422.319 39.2768 419.56 40.4827C410.07 44.6312 401.329 53.6656 394.94 65.9331C390.315 74.8121 388.373 82.9137 387.902 95.2844C387.534 104.989 387.571 105.206 390.721 111.766C393.522 117.602 394.448 118.688 398.301 120.66C402.198 122.654 403.814 122.902 412.721 122.863C421.206 122.825 423.947 122.421 430.503 120.244C434.767 118.828 438.46 117.371 438.711 117.006C438.962 116.64 441.347 115.252 444.013 113.922C454.853 108.511 464.802 98.8538 465.784 92.7895C466.234 90.0104 466.057 89.5609 464.513 89.5609C463.525 89.5609 460.993 91.2044 458.885 93.2134C448.644 102.973 429.49 110.877 415.974 110.922C406.819 110.952 400.849 107.768 400.203 102.511C399.99 100.774 400.802 100.182 405.882 98.3723C409.142 97.2112 413.656 95.3064 415.913 94.1388C418.17 92.9722 426.377 89.4403 434.151 86.2903C465.549 73.5687 463.733 74.9418 462.964 64.4887C462.135 53.2271 456.045 43.9387 446.208 38.9342C444.563 38.0973 442.818 37.6588 442.332 37.9603C441.845 38.2618 441.447 38.0727 441.447 37.541C441.447 36.3588 427.941 36.3104 425.944 37.4861ZM147.447 40.6024C147.879 41.7306 138.744 64.7628 136.907 67.1783C136.525 67.6807 134.071 73.0252 131.454 79.0548C128.837 85.0844 125.701 92.0732 124.484 94.5855C120.564 102.684 116.649 115.206 115.408 123.617C114.26 131.399 108.595 131.096 108.595 123.253C108.595 114.541 101.349 108.28 90.0411 107.222C82.7931 106.544 71.2382 108.799 63.164 112.466C59.9057 113.946 57.0487 114.966 56.8152 114.732C55.9744 113.889 61.363 101.738 65.9335 94.1671C75.9446 77.5839 84.5167 68.7186 101.872 56.9965C108.089 52.7986 113.551 49.3635 114.013 49.3635C114.474 49.3635 117.47 48.1494 120.67 46.6658C123.871 45.1812 128.311 43.5295 130.537 42.9932C132.764 42.4578 136.637 41.4392 139.144 40.7284C145.06 39.0538 146.843 39.0264 147.447 40.6024ZM181.719 43.9935C186.646 45.6005 199.194 51.8375 202.067 54.1077C209.937 60.3274 216.692 66.2793 218.64 68.7103C219.978 70.3794 222.049 72.7739 223.241 74.0301C225.663 76.5817 234.152 89.9537 234.951 92.4743C235.234 93.3668 233.955 98.3184 232.109 103.477C230.264 108.636 228.535 113.474 228.268 114.227C228.001 114.981 227.237 111.215 226.57 105.86C225.156 94.5079 222.518 86.705 219.213 84.1004C216.133 81.6731 209.664 81.6329 205.822 84.0173C201.596 86.6411 196.37 94.0301 189.999 106.394L184.314 117.425L184.527 104.377C184.76 90.1711 184.568 89.6038 179.533 89.5746C174.116 89.5444 173.19 92.2705 170.075 117.423C168.235 132.279 168.038 132.685 163.048 131.922C160.935 131.6 158.777 131.001 158.253 130.59C156.995 129.606 166.999 50.3785 169.356 42.6552C169.956 40.6891 172.396 40.9532 181.719 43.9935ZM443.278 50.7376C448.111 53.2417 454.086 61.5287 453.035 64.2713C452.757 64.9985 448.497 66.9115 443.569 68.524C434.772 71.4017 420.416 77.0604 408.544 82.3299C400.868 85.7366 400.326 85.7147 400.988 82.0239C401.61 78.5596 406.782 67.6351 407.799 67.6351C408.181 67.6351 408.726 66.9161 409.009 66.0363C409.527 64.4257 415.594 57.6159 419.253 54.538C420.338 53.6254 423.621 51.8713 426.548 50.6398C432.349 48.1997 438.447 48.2353 443.278 50.7376ZM340.752 62.0495C345.644 65.0378 347.063 69.3745 347.063 81.3387C347.063 93.2472 345.692 98.6729 340.716 106.468C333.553 117.685 320.356 128.782 312.4 130.277C307.007 131.29 304.19 129.455 302.021 123.515C299.768 117.345 297.998 106.657 298.683 103.348C298.952 102.046 299.806 95.4416 300.58 88.6711C302.11 75.2872 302.91 73.5532 308.853 70.7284C310.423 69.982 312.481 68.672 313.426 67.8178C314.955 66.4364 323.831 62.0641 327.456 60.9075C330.918 59.8021 338.081 60.4178 340.752 62.0495ZM256.885 83.365C258.221 85.9532 258.335 88.7615 257.842 106.89C257.534 118.211 256.759 130.146 256.118 133.413C254.971 139.265 254.908 139.355 251.765 139.673C247.528 140.101 233.528 138.016 233.528 136.957C233.528 135.27 239.242 115.376 241.762 108.289C248.345 89.7792 252.621 80.4251 254.5 80.4251C254.978 80.4251 256.05 81.748 256.885 83.365ZM287.956 89.7893C287.69 90.9194 286.195 99.8614 284.634 109.66C280.978 132.607 279.212 141.912 278.347 142.779C277.56 143.568 269.899 142.698 268.163 141.624C267.04 140.928 267.303 138.782 270.966 118.795C271.381 116.534 271.745 112.578 271.774 110.002C271.875 101.392 272.477 100.159 279.736 93.7423C286.974 87.3418 288.733 86.4958 287.956 89.7893ZM145.402 93.9004C145.181 96.2866 144.59 101.118 144.087 104.635C143.585 108.152 142.618 115.007 141.94 119.867C141.262 124.727 140.4 129.202 140.024 129.81C139.235 131.09 126.236 130.439 124.848 129.048C124.349 128.549 125.703 125.363 128.242 121.059C130.566 117.123 134.229 110.326 136.384 105.957C140.334 97.9475 145.008 89.5609 145.524 89.5609C145.677 89.5609 145.623 91.5141 145.402 93.9004ZM211.75 99.8203C213.824 103.895 213.825 105.77 211.768 128.388C211.195 134.681 211.142 134.787 208.451 135.03C206.946 135.167 202.642 134.961 198.886 134.574C193.647 134.033 191.992 133.521 191.772 132.372C191.496 130.93 195.858 118.679 200.023 109.203C202.844 102.782 207.485 95.9559 209.03 95.9559C209.443 95.9559 210.667 97.6954 211.75 99.8203ZM89.5824 121.533C91.0852 123.039 92.1768 124.992 92.0072 125.873C91.7327 127.301 90.4186 127.474 79.8567 127.474C65.7903 127.474 64.738 126.489 73.7934 121.793C81.407 117.844 85.8271 117.772 89.5824 121.533ZM88.22 132.499C92.1385 132.499 92.1805 132.533 92.1805 135.696C92.1805 137.454 91.4919 142.696 90.6512 147.345C89.8104 151.992 89.0918 157.028 89.0553 158.536C88.9915 161.168 89.141 161.274 92.8142 161.202C94.919 161.16 97.2672 160.605 98.0332 159.968C99.9318 158.39 103.396 150.605 106.389 141.192L108.877 133.369L123.554 133.962C131.627 134.289 138.587 134.881 139.021 135.277C139.833 136.019 138.41 149.219 136.811 155.795C135.867 159.671 134.889 166.636 130.458 201.017C128.936 212.825 127.527 223.719 127.324 225.227C127.122 226.734 126.923 230.434 126.881 233.449C126.764 241.956 126.453 242.138 117.331 239.036C106.215 235.254 104.548 234.043 103.184 228.756C101.246 221.246 100.169 219.103 95.9321 214.324C91.9671 209.851 84.3352 204.261 72.1182 196.88C62.1372 190.85 54.9449 182.402 52.924 174.334C50.3105 163.899 50.0798 162.087 50.6643 156.617C51.0072 153.412 51.6656 150.556 52.127 150.27C52.5894 149.983 52.9715 149.054 52.9769 148.204C52.9906 145.81 56.9566 137.864 59.8565 134.425L62.4682 131.325L73.3639 131.912C79.3561 132.235 86.0414 132.499 88.22 132.499ZM166.26 143.364C166.127 147.079 164.936 156.945 163.613 165.29C162.29 173.635 161.028 184.911 160.809 190.347C160.466 198.834 160.636 200.484 162.002 201.996C164.046 204.259 166.118 204.227 169.095 201.88C171.689 199.836 173.706 194.174 175.218 184.697C175.728 181.499 177.942 173.482 180.139 166.882C182.336 160.282 185.217 151.246 186.543 146.804L188.954 138.726L198.702 139.361C204.064 139.71 208.944 140.467 209.548 141.044C210.351 141.81 210.425 143.561 209.822 147.573C207.988 159.787 206.983 170.685 207.253 175.437C207.514 180.032 207.734 180.483 209.818 180.709C214.734 181.244 219.389 174.1 225.756 156.252C229.127 146.801 230.626 143.721 232.135 143.141C232.911 142.843 235.649 142.999 238.221 143.487C240.793 143.975 244.79 144.382 247.103 144.389C253.281 144.41 253.752 144.986 253.91 152.708C254.042 159.214 254.128 159.459 256.374 159.721C259.241 160.056 261.021 158.124 263.176 152.339C264.071 149.936 265.228 147.708 265.746 147.387C267.331 146.405 275.861 147.141 277.099 148.365C278.011 149.267 278.047 150.538 277.264 154.196C276.186 159.231 275.034 160.626 270.583 162.284C269.011 162.871 263.49 165.082 258.314 167.197C253.138 169.314 248.691 170.833 248.431 170.573C248.172 170.313 247.375 165.908 246.66 160.786C245.945 155.664 245.136 151.109 244.862 150.664C243.658 148.712 242.697 150.299 241.338 156.48C238.706 168.459 232.866 180.04 229.482 179.991C228.549 179.977 198.894 194.603 197.963 195.536C197.713 195.787 195.866 196.745 193.86 197.665C191.854 198.585 188.202 200.621 185.745 202.187C180.626 205.452 176.799 207.65 172.886 209.571C171.381 210.31 168.409 212.182 166.282 213.731C164.155 215.281 162.21 216.548 161.959 216.548C161.709 216.548 158.807 218.398 155.511 220.659C152.213 222.92 149.182 224.77 148.773 224.77C148.365 224.77 147.52 225.387 146.896 226.14C144.602 228.909 143.916 227.583 144.414 221.344C144.93 214.884 145.982 206.957 150.633 174.523C152.181 163.72 153.978 151.117 154.625 146.516C155.273 141.915 156.093 137.681 156.446 137.107C156.833 136.48 158.969 136.172 161.796 136.337L166.502 136.61L166.26 143.364ZM197.963 222.934C192.296 227.303 190.598 228.37 182.21 232.825C177.307 235.43 172.588 237.556 171.723 237.551C170.32 237.543 179.066 232.104 193.404 224.069C199.093 220.881 201.358 220.316 197.963 222.934Z" fill="white"/>
</svg>
